# xmcd
#
# Track frame offsets:
#	150
#	11267
#	28380
#	44085
#	58027
#	71957
#	89987
#	103332
#	124535
#	133225
#	150945
#
# Disc length: 2268 seconds
#
# Revision: 10
# Processed by: cddbd v1.5.2PL0 Copyright (c) Steve Scherf et al.
# Submitted via: EZCDAudioConverter 1.3.4.1
#
DISCID=a308da0b
DTITLE=Ry Cooder - Into The Purple Valley
DYEAR=1972
DGENRE=Blues
TTITLE0=How Can You Keep Moving (Unless You Migrate Too)
TTITLE1=Billy The Kid
TTITLE2=Money Honey
TTITLE3=F.D.R. In Trinidad
TTITLE4=Teardrops Will Fall
TTITLE5=Denomination Blues
TTITLE6=On A Monday
TTITLE7=Hey Porter
TTITLE8=Great Dream From Heaven
TTITLE9=Taxes On The Farmer Feeds Us All
TTITLE10=Vigilante Man
EXTD=
EXTT0=
EXTT1=
EXTT2=
EXTT3=
EXTT4=
EXTT5=
EXTT6=
EXTT7=
EXTT8=
EXTT9=
EXTT10=
PLAYORDER=
